<svg width="4130" height="360" viewBox="0 0 4130 360" fill="none" xmlns="http://www.w3.org/2000/svg">
<path d="M0 4.94319H77.3864L181.023 257.898H185.114L288.75 4.94319H366.136V354.034H305.455V114.205H302.216L205.739 353.011H160.398L63.9205 113.693H60.6818V354.034H0V4.94319Z" fill="#E3EEFC"/>
<path d="M742.132 179.489C742.132 217.102 735.086 249.318 720.995 276.136C707.018 302.841 687.927 323.295 663.723 337.5C639.632 351.705 612.302 358.807 581.734 358.807C551.166 358.807 523.78 351.705 499.575 337.5C475.484 323.182 456.393 302.67 442.302 275.966C428.325 249.148 421.336 216.989 421.336 179.489C421.336 141.875 428.325 109.716 442.302 83.0114C456.393 56.1932 475.484 35.6818 499.575 21.4773C523.78 7.27273 551.166 0.17046 581.734 0.17046C612.302 0.17046 639.632 7.27273 663.723 21.4773C687.927 35.6818 707.018 56.1932 720.995 83.0114C735.086 109.716 742.132 141.875 742.132 179.489ZM678.552 179.489C678.552 153.011 674.405 130.682 666.109 112.5C657.927 94.2046 646.564 80.3977 632.018 71.0796C617.473 61.6477 600.711 56.9318 581.734 56.9318C562.757 56.9318 545.995 61.6477 531.45 71.0796C516.905 80.3977 505.484 94.2046 497.189 112.5C489.007 130.682 484.916 153.011 484.916 179.489C484.916 205.966 489.007 228.352 497.189 246.648C505.484 264.83 516.905 278.636 531.45 288.068C545.995 297.386 562.757 302.045 581.734 302.045C600.711 302.045 617.473 297.386 632.018 288.068C646.564 278.636 657.927 264.83 666.109 246.648C674.405 228.352 678.552 205.966 678.552 179.489Z" fill="#E3EEFC"/>
<path d="M797.119 354.034V4.94319H860.357V152.727H1022.12V4.94319H1085.53V354.034H1022.12V205.739H860.357V354.034H797.119Z" fill="#E3EEFC"/>
<path d="M1194.34 354.034H1126.84L1249.73 4.94319H1327.8L1450.87 354.034H1383.37L1290.13 76.5341H1287.4L1194.34 354.034ZM1196.55 217.159H1380.64V267.955H1196.55V217.159Z" fill="#E3EEFC"/>
<path d="M1492.05 4.94319H1569.44L1673.07 257.898H1677.16L1780.8 4.94319H1858.19V354.034H1797.5V114.205H1794.27L1697.79 353.011H1652.45L1555.97 113.693H1552.73V354.034H1492.05V4.94319Z" fill="#E3EEFC"/>
<path d="M1922.25 354.034V4.94319H2149.3V57.9546H1985.49V152.727H2137.53V205.739H1985.49V301.023H2150.66V354.034H1922.25Z" fill="#E3EEFC"/>
<path d="M2327.31 354.034H2209.01V4.94319H2329.69C2364.35 4.94319 2394.13 11.9318 2419.01 25.9091C2444.01 39.7727 2463.22 59.7159 2476.63 85.7386C2490.04 111.761 2496.74 142.898 2496.74 179.148C2496.74 215.511 2489.98 246.761 2476.46 272.898C2463.05 299.034 2443.67 319.091 2418.33 333.068C2393.1 347.045 2362.76 354.034 2327.31 354.034ZM2272.25 299.318H2324.24C2348.56 299.318 2368.84 294.886 2385.09 286.023C2401.34 277.045 2413.56 263.693 2421.74 245.966C2429.92 228.125 2434.01 205.852 2434.01 179.148C2434.01 152.443 2429.92 130.284 2421.74 112.67C2413.56 94.9432 2401.46 81.7046 2385.43 72.9546C2369.52 64.0909 2349.75 59.6591 2326.11 59.6591H2272.25V299.318Z" fill="#E3EEFC"/>
<path d="M2589.01 242.045C2577.76 242.045 2568.1 238.068 2560.04 230.114C2552.08 222.045 2548.1 212.386 2548.1 201.136C2548.1 190 2552.08 180.455 2560.04 172.5C2568.1 164.545 2577.76 160.568 2589.01 160.568C2599.92 160.568 2609.47 164.545 2617.65 172.5C2625.83 180.455 2629.92 190 2629.92 201.136C2629.92 208.636 2627.99 215.511 2624.13 221.761C2620.38 227.898 2615.43 232.841 2609.3 236.591C2603.16 240.227 2596.4 242.045 2589.01 242.045Z" fill="#E3EEFC"/>
<path d="M2669.4 4.94319H2706.22L2809.68 170.625H2812.75L2916.22 4.94319H2953.03L2827.07 202.841V354.034H2795.36V202.841L2669.4 4.94319Z" fill="#E3EEFC"/>
<path d="M3277.89 179.489C3277.89 215.852 3271.42 247.5 3258.46 274.432C3245.51 301.25 3227.67 322.045 3204.94 336.818C3182.33 351.477 3156.3 358.807 3126.87 358.807C3097.44 358.807 3071.36 351.477 3048.63 336.818C3026.02 322.045 3008.23 301.25 2995.28 274.432C2982.44 247.5 2976.02 215.852 2976.02 179.489C2976.02 143.125 2982.44 111.534 2995.28 84.7159C3008.23 57.7841 3026.08 36.9886 3048.8 22.3295C3071.53 7.55682 3097.55 0.17046 3126.87 0.17046C3156.3 0.17046 3182.33 7.55682 3204.94 22.3295C3227.67 36.9886 3245.51 57.7841 3258.46 84.7159C3271.42 111.534 3277.89 143.125 3277.89 179.489ZM3246.87 179.489C3246.87 148.239 3241.64 121.477 3231.19 99.2046C3220.73 76.8182 3206.47 59.7159 3188.41 47.8977C3170.34 36.0795 3149.83 30.1705 3126.87 30.1705C3104.03 30.1705 3083.58 36.0795 3065.51 47.8977C3047.44 59.7159 3033.12 76.7614 3022.55 99.0341C3012.1 121.307 3006.87 148.125 3006.87 179.489C3006.87 210.739 3012.1 237.5 3022.55 259.773C3033.01 282.045 3047.27 299.148 3065.34 311.08C3083.41 322.898 3103.92 328.807 3126.87 328.807C3149.83 328.807 3170.34 322.898 3188.41 311.08C3206.59 299.261 3220.91 282.216 3231.36 259.943C3241.81 237.557 3246.98 210.739 3246.87 179.489Z" fill="#E3EEFC"/>
<path d="M3539.73 92.2159C3537.8 72.7841 3529.22 57.3296 3513.99 45.8523C3498.76 34.375 3479.61 28.6364 3456.55 28.6364C3440.3 28.6364 3425.98 31.4205 3413.59 36.9886C3401.32 42.5568 3391.66 50.2841 3384.61 60.1705C3377.68 69.9432 3374.22 81.0796 3374.22 93.5796C3374.22 102.784 3376.2 110.852 3380.18 117.784C3384.16 124.716 3389.5 130.682 3396.2 135.682C3403.02 140.568 3410.52 144.773 3418.7 148.295C3427 151.818 3435.35 154.773 3443.76 157.159L3480.58 167.727C3491.72 170.795 3502.85 174.716 3513.99 179.489C3525.12 184.261 3535.3 190.284 3544.5 197.557C3553.82 204.716 3561.26 213.523 3566.83 223.977C3572.51 234.318 3575.35 246.761 3575.35 261.307C3575.35 279.943 3570.52 296.705 3560.86 311.591C3551.2 326.477 3537.34 338.295 3519.27 347.045C3501.2 355.682 3479.56 360 3454.33 360C3430.58 360 3409.95 356.08 3392.45 348.239C3374.95 340.284 3361.2 329.318 3351.2 315.341C3341.2 301.364 3335.58 285.17 3334.33 266.761H3367.06C3368.19 280.511 3372.74 292.159 3380.69 301.705C3388.65 311.25 3398.99 318.523 3411.72 323.523C3424.44 328.409 3438.65 330.852 3454.33 330.852C3471.72 330.852 3487.17 327.955 3500.69 322.159C3514.33 316.25 3525.01 308.068 3532.74 297.614C3540.58 287.045 3544.5 274.773 3544.5 260.795C3544.5 248.977 3541.43 239.091 3535.3 231.136C3529.16 223.068 3520.58 216.307 3509.56 210.852C3498.65 205.398 3485.98 200.568 3471.55 196.364L3429.78 184.091C3402.4 175.909 3381.15 164.602 3366.03 150.17C3350.92 135.739 3343.36 117.33 3343.36 94.9432C3343.36 76.1932 3348.36 59.7159 3358.36 45.5114C3368.48 31.1932 3382.11 20.0568 3399.27 12.1023C3416.55 4.03409 3435.92 0 3457.4 0C3479.1 0 3498.31 3.97728 3515.01 11.9318C3531.72 19.8864 3544.95 30.8523 3554.73 44.8295C3564.61 58.6932 3569.9 74.4886 3570.58 92.2159H3539.73Z" fill="#E3EEFC"/>
<path d="M3647.26 354.034V4.94319H3849.76V33.5795H3679.13V165H3839.02V193.636H3679.13V325.398H3853.17V354.034H3647.26Z" fill="#E3EEFC"/>
<path d="M3927.46 354.034V4.94319H4129.45V33.5795H3959.33V165H4113.59V193.636H3959.33V354.034H3927.46Z" fill="#E3EEFC"/>
</svg>
